<svg xmlns="http://www.w3.org/2000/svg" viewBox="0 0 326.8 208.78"><defs><style>.a{fill:#fcb500}.b{fill:#814c8c}.c{fill:#fb566b}.d{fill:#292954}</style></defs><path class="a" d="M124.2 198.48s-2.4.33-2.56 1.56.16 3.31-.58 3.47-2.48.83-2 2.15a4.76 4.76 0 003.61 2.81c1.57.16 3.39.9 4-.66s2.06-1.74 1.65-3.39-1.08-4.29-2.32-5.12a3.92 3.92 0 00-1.8-.82zM241.81 21.57s-.66-2.65-1.82-2.81-3 1.48-3 2.81.66 5.28 2.4 5.28 2.06-1.16 2.39-2.64a5.87 5.87 0 00.03-2.64z"/><path class="b" d="M294.93 50.57s-1 .74-.75 1.48 1.65 1.16 2.56 1.65 1.32 2.48 2.48 2.48 3.88-.08 4.05-1.65.08-3.8-2.56-4.38-5.28-.1-5.78.42z"/><path class="c" d="M45.59 53.09c-2.47.61-3.55 1.4-3.06 3.47s.33 4.45 1.82 4.45 3.47-.16 4-1.32 1.65-4.29 0-5.53-2.31-1.18-2.76-1.07z"/><path class="b" d="M45.67 99.86s-2.81 1.24-3.14 2-1.15 3.14-.49 3.63 2.31 2.32 4 .75 2.89-1.08 2.4-3.47-2.03-3.26-2.77-2.91z"/><path class="a" d="M54.51 106.46s-1.49-1.32-2.15-.74-2.31.74-2.15 2.07.73 3.13 2.14 3 2.07 1.41 2.57 0a4.61 4.61 0 00-.41-4.33zM62.86 107.12c.36-4.78-4.55-14.75-6.51-24.84s-1-10.51-.75-17.11c.15-3.57-.46-7.67 3.16-12.24l25.78 64.81z"/><path class="b" d="M62.83 111.45c.94 4.9 3.56 12.23 6.31 14.69 3.16 2.84 14.11 22.49 21.42 30.34l-4.09-33.32z"/><path class="a" d="M26.57 143.03c-5-2.2-7.13-8.44-12.32-17.3s-10.43-8.49-12.37-14.81c-1-3.41-3-7.08-1.08-12.59l49.74 47.52z"/><path class="b" d="M27.98 147.12c2.51 4.32 7.41 10.36 10.82 11.77 3.94 1.63 20.78 16.53 30.28 21.51l-14.91-30.07z"/><path class="c" d="M114.58 197.57c-3.82 1.49-15.1 1.49-21.37-1.79-5.89-3.08-12-8.41-18-11.89l-17.94-36.32-.11-.23-53.7-52.05c.11-2.92 2.91.12 3.48-1.23s8.55 2.19 9.28 3.19 12.21 4.86 15.17 6.29 5.72 5.51 7.6 8.09 14.83 8.15 19.22 10.56 2.53 7.72 5.92 7.66 13.23 18.72 16.2 21.72c4.86 5 8 11.56 23.2 29.84 4 4.83 6.63 6.19 7 8.54s-10.23-2.33-11.94-3.07-15.08-7-16.29-8-4.48-3.95-3.74-2.09 7.59 8.78 13.11 11.19 11.43 5.38 13.61 6.51 4-1.21 6.79-.29c.04 0 4.41 1.84 2.51 3.37zM127.33 190.84c5.16-1.32-.76-7.07-.76-7.07-2.29-1.77-5.86.92-7.54-.86s-5.18-7.69-9.64-11.77-8.59-12.92-8.67-14.91 2 1.83 2.84 3.21 11.35 11.7 12.71 13 9.84 9.21 10.24 6.86-3.65-4.1-3.8-10.39c-.82-34.91-3.66-33-6.6-39.32-1.8-3.82-10.23-21.33-13.45-22.4s.31-5.46-3-9.19-8.37-16.81-9.29-19.86-2.16-7.82-4.48-10.15-11.86-9.78-12.22-10.97-6.71-7.16-7.7-6.08-2.62-2.72-3.69 0l28 70.41v.25l4.93 40.18c4.47 5.25 8.46 12.31 13 17.17 4.82 5.17 11.54 12.37 15.63 12.23a19.11 19.11 0 003.49-.34z"/><path class="d" d="M323.06 17.76c-.41-.63-.8-1.21-1.09-1.7-2-3.46-7.37-2.87-12.08-2.36-.78.09-1.52.17-2.19.22a20.27 20.27 0 01-2.95-.06c.09-2.87-2.91-6.22-5.42-9-.62-.7-1.4-1.57-1.53-1.78-1.5-3.36-11.08-3.11-11.88-3-3.15.48-5.1 4.46-8.81 13.43l-.38.93c-2.44 5.93-2.44 5.93-5.85 8.94l-.51.46c-4.17 3.7-13.29 8.39-13.38 8.43-.28.18-.59.36-.93.55a10 10 0 00-8.32-1.25 5.82 5.82 0 00-3.93 2.84 4.66 4.66 0 00-.52 2.2c-7.43.16-21.81-.36-25.21-.36-4.4 0-13.65 6.17-20.26 6.61s-25.54-1.29-39.63-2.62-37.43 1.33-69.14 4a124.87 124.87 0 00-20.73 3.33c7.28 3.89 16.73 9.29 19.35 12.63 4.42 5.63 9.59 8.75 9.89 15.61.34 7.53 5.33 12.8 7 18.71 2 7.29 4.66 13.07 11.08 17.85 2.65 2 10.8 19.88 10.44 24.71s3.43 20.23 2.3 27.21 5.46 11.76 5.3 24.61c12.51-5.12 26-17.13 28.08-17.65 2.65-.66 36.8-17.78 44.26-24.88 7.14-6.79 15-11.45 22.24-23.34 0 0 10.79-18.27 12.11-22 .61-1.74 7.65-11.7 15.13-21.82l-2.12 12.36a4 4 0 00.64 2.89l18.53 30.14a4 4 0 002.79 1.71 2.92 2.92 0 00.51 0 4 4 0 002.62-1l32.2-28.2a4 4 0 001-4.54l-15-26.34a4 4 0 00-2.79-2.28l-23-5a60.84 60.84 0 014.28-5.11 23.21 23.21 0 017.75-5.07 98.09 98.09 0 0015-8.13 11.66 11.66 0 004.17 2.54 10.87 10.87 0 003.74.58c3.45 0 7.43-1.08 10.57-1.94l2.08-.56c3.6-.9 4.85-4.89 5.85-8.1a15.79 15.79 0 011.56-3.89c2.51-3.51-.57-8.13-2.82-11.51zM155.5 103.28a20.12 20.12 0 01-4.26 6.91 17.69 17.69 0 01-6.65 4.44 12.67 12.67 0 01-8.91.3 15.08 15.08 0 01-7.17-5.48 24.83 24.83 0 01-4.2-9.61 26 26 0 010-11.25 24.71 24.71 0 014.4-9.77 17 17 0 017.5-5.81 13.69 13.69 0 016.54-.83 12.42 12.42 0 016.2 2.68 16.47 16.47 0 014.43 5.59 1.22 1.22 0 01-.27 1.45l-5.8 4.73a.69.69 0 01-1-.13 7.76 7.76 0 00-2.93-2.38 5.85 5.85 0 00-4.82-.08 8 8 0 00-3.4 2.56 10.76 10.76 0 00-2.09 4.47 12.55 12.55 0 000 5.52 11.74 11.74 0 001.95 4.48 7.11 7.11 0 003.32 2.62 5.64 5.64 0 004.06-.08 8.3 8.3 0 003.22-2.18 10.59 10.59 0 002.05-3.22 10.3 10.3 0 00.67-2.3.92.92 0 01.83-.86l6.86.09a.94.94 0 01.81 1 21.9 21.9 0 01-1.34 7.14zm8.64 11.48l-2.16.74v-.68a1.19 1.19 0 00-.35-.92 1 1 0 00-1-.11 1.74 1.74 0 00-1.07.84 3 3 0 00-.27 1.28v7.27a1.39 1.39 0 00.29.94c.19.21.53.24 1 .07a1.8 1.8 0 00.46-.23 2.26 2.26 0 00.46-.38 1.93 1.93 0 00.31-.55 1.88 1.88 0 00.13-.74v-.72l2.16-.73v.88a3.64 3.64 0 01-.27 1.34 5.2 5.2 0 01-.73 1.29 5.68 5.68 0 01-1.09 1.1 4.67 4.67 0 01-1.35.73 4.88 4.88 0 01-1.25.26 2.25 2.25 0 01-1.14-.17 2 2 0 01-.83-.74 2.72 2.72 0 01-.32-1.5v-7.83a4 4 0 01.25-1.39 5 5 0 01.73-1.28 5.65 5.65 0 011.11-1.07 5.51 5.51 0 011.43-.73 2.75 2.75 0 012.47.09 2 2 0 01.73.85 2.77 2.77 0 01.26 1.27zm11.27 3.12a4 4 0 01-.27 1.38 5.25 5.25 0 01-.76 1.3 5.84 5.84 0 01-1.12 1.1 4.69 4.69 0 01-1.36.72 3.27 3.27 0 01-1.34.2 2.5 2.5 0 01-1.11-.34 2.13 2.13 0 01-.76-.79 2.47 2.47 0 01-.27-1.2v-11l2.16-.73v10.83c0 .51.12.83.38 1a1.1 1.1 0 001 0 1.95 1.95 0 001.34-1.93v-10.83l2.15-.73zm0-19l-2.4-10.72-6.73 2.24 2.34 10.72a1.24 1.24 0 01-.63 1.42l-5 1.9c-.49.18-1-.16-1.12-.77l-6.29-28.8a1.25 1.25 0 01.63-1.43l5-1.9a.88.88 0 011.11.77l2.1 9.58 6.68-2.32-2.19-9.69a1.25 1.25 0 01.62-1.43l5-2a.88.88 0 011.13.75l6.52 29.1a1.23 1.23 0 01-.63 1.43l-5 1.87c-.52.17-1.01-.17-1.15-.77zm10.68 6.31l-2.5.85v12.31l-2.16.73v-12.3l-2.5.85v-1.92l7.15-2.44zm9.93-3.37l-4.28 1.45v4.18l3.73-1.27v1.92l-3.8 1.21v4.18l4.28-1.45v2l-6.43 2.19v-14.22l6.43-2.19zm.59-13.93a7 7 0 01-5.11 3.28 5.93 5.93 0 01-4.42-1 10.39 10.39 0 01-3.48-4.08 17 17 0 01-1-12.4 13.85 13.85 0 012.75-5.12 7 7 0 014-2.42c2.35-.41 4.1.09 5.25 1.48l-.15-1.64 6.07-1 3 23.48-6.77 1.1zm8.77 23l-2-5.39-1.29.44v6.07l-2.16.73V98.52l3.47-1.18q3.81-1.31 3.8 2.88a5.94 5.94 0 01-.42 2.28 5.14 5.14 0 01-1.45 1.91l2.31 5.7zm8.32-2.83l-2.16.73V94.56l2.16-.73zm11.1-16.09l-4.28 1.46v4.14l3.73-1.27v1.92l-3.75 1.35v4.18l4.28-1.46v2l-6.44 2.19V92.25l6.43-2.19zm1.35-7.63a6.78 6.78 0 01-4 .21 9.71 9.71 0 01-4-1.91 9.33 9.33 0 01-2.74-3.41l-.45.09 1.54 6.89-5.83 2.22-5.85-25.78a8.15 8.15 0 012.51-2.38 17.88 17.88 0 013.6-1.94 10.4 10.4 0 015.76-.7 7.12 7.12 0 014.11 2.41 10.86 10.86 0 012.23 4.79 14.39 14.39 0 01.16 5.5 11.71 11.71 0 01-1.91 4.8 3.17 3.17 0 001.9 1.3 4.67 4.67 0 002.26 0l1.63 7.47a4.91 4.91 0 01-.92.44zm16.25-11.88a9.22 9.22 0 01-3.37 2.76q-3 1.53-5 .66c-1.36-.59-2.45-2.24-3.28-5-.23-.75-.48-1.76-.74-3l-1.15-6.24-2.64 1.4-2.21-6.4 3.56-1.92-.63-3.42 5.86-3.43.69 3.62 3.33-1.8 2.66 6.4-4.67 2.48 1 5.41a6.06 6.06 0 00.18.7 3.2 3.2 0 001.18 1.79 1.51 1.51 0 001.63.09c.91-.46 1.46-1.49 1.67-3.1l3.46 5a9.29 9.29 0 01-1.53 4zm6.32-34.4a5.14 5.14 0 01-1.19-1.5c-.13-.33.52-.9 1.23-1.09 2.79-.74 4 0 4 0a50.14 50.14 0 0115.72 26.52 4.87 4.87 0 01-.1 2.15 4.94 4.94 0 01-3 3.2.76.76 0 01-.35 0 2.19 2.19 0 01-.13-.68 9.72 9.72 0 00-.19-1.35 49.25 49.25 0 00-15.99-27.25zm23.46 27.33a7.29 7.29 0 00.36-2L293 67.88l15.06 26.32-32.2 28.21-18.53-30.15 3.22-19.85 1.67-2.21.36.32a4.11 4.11 0 002.57.84 5.66 5.66 0 00.88-.07c2.49-.42 5.19-3.01 6.15-5.9zm50.41-38.43a17.54 17.54 0 00-2.13 5c-.75 2.37-1.59 5.06-3 5.41-.65.16-1.38.36-2.17.58-3.63 1-9.12 2.49-11.84 1.47-2.06-.77-3.14-1.81-3.27-2.44-.08-.4.31-.85.64-1.16a2.002 2.002 0 00-2.74-2.92 5.36 5.36 0 00-1.9 4 91.16 91.16 0 01-14.83 8.12c-6.06 2.5-8.9 5.68-9 5.83-1.9-.33-4.27-3.65-5-6.13s4-5.94 4-5.94l2.4-1.9v-1.07s-6.44 2.89-8.76 3.8-4.7-1.48-5.86-3.88c.4-.17 9.32-4.78 14-8.91l.52-.46c4-3.52 4.17-3.81 6.89-10.41l.38-.92c1.53-3.7 4.36-10.57 5.72-11 1.84-.28 6.62.33 7.77 1a18.36 18.36 0 002.05 2.52c1 1.14 4 4.43 4.34 5.9-2.61-.37-5.15-.83-6.47-1.1a2 2 0 10-.79 3.92c.42.09 10.23 2 14.59 1.69.71-.06 1.49-.14 2.3-.23 2.43-.27 7.48-.82 8.2.4.32.55.75 1.2 1.21 1.89 1.22 1.94 3.68 5.65 2.75 6.94z"/><path class="d" d="M194.34 74.82a2.8 2.8 0 00-2.51-.7 3.21 3.21 0 00-2.16 1.56 4.74 4.74 0 00-.67 3 4.87 4.87 0 00.6 2 3.89 3.89 0 001.33 1.45 2.44 2.44 0 001.77.34 3.19 3.19 0 002.29-1.54 5.3 5.3 0 00.61-3.25 4.27 4.27 0 00-1.26-2.86zM215.94 65.18a2.22 2.22 0 00-2.29-.28 4 4 0 00-1.61 1.11l1.46 6.56a3.26 3.26 0 001-.2 4.32 4.32 0 002.21-2 4.14 4.14 0 00.47-3.08 3.54 3.54 0 00-1.24-2.11zM204.75 99.35c-.27-.28-.78-.29-1.52 0l-1.13.38v4.44l1.23-.42a3.09 3.09 0 00.91-.46 2 2 0 00.53-.61 2.78 2.78 0 00.24-.77 7.1 7.1 0 00.06-1 6.22 6.22 0 00-.06-.93 1.4 1.4 0 00-.26-.63zM271.8 87.08a18.68 18.68 0 0110.69 2.38 21.94 21.94 0 017.56 7.06l-2.46 1.94a19.09 19.09 0 00-6.38-5.89 15.9 15.9 0 00-9.15-2.08l-1.25.1.72 9.27 1.25-.11a9.64 9.64 0 018.24 3.89l-5.63 4.46a.43.43 0 01-.49 0 .62.62 0 01-.29-.48l-.32-4.42a6.28 6.28 0 00-2.51.22l.34 4.41a3.54 3.54 0 001.72 2.87 2.61 2.61 0 003-.25l7.74-6.12-.72-1.21a13.77 13.77 0 00-4.95-4.91 11.48 11.48 0 00-5.12-1.44l-.25-3.47a13.93 13.93 0 016.64 1.8 16.84 16.84 0 016.14 6.07l.71 1.2 6.56-5.18-.72-1.2a25.25 25.25 0 00-9.31-9.2 21 21 0 00-10.71-2.76l-.53-7a.56.56 0 01.22-.5.42.42 0 01.49 0l24 13.41a.6.6 0 01.28.48.58.58 0 01-.21.51l-2.55 2c.51.78 1 1.57 1.43 2.4l2.55-2a3.49 3.49 0 001.26-3.11 3.55 3.55 0 00-1.72-2.88l-24-13.41a2.61 2.61 0 00-3 .25 3.62 3.62 0 00-1.27 3.12l.75 9.9z"/></svg>